<mxfile host="app.diagrams.net" agent="Mozilla/5.0 (Windows NT 10.0; Win64; x64) AppleWebKit/537.36 (KHTML, like Gecko) Chrome/133.0.0.0 Safari/537.36" version="26.0.11">
  <diagram id="kgpKYQtTHZ0yAKxKKP6v" name="Page-1">
    <mxGraphModel dx="1434" dy="746" grid="1" gridSize="10" guides="1" tooltips="1" connect="1" arrows="1" fold="1" page="1" pageScale="1" pageWidth="850" pageHeight="1100" math="0" shadow="0">
      <root>
        <mxCell id="0" />
        <mxCell id="1" parent="0" />
        <mxCell id="XwZqhcOC-zFPmnJXmP0F-1" value="upload des fichiers gael" style="rounded=1;whiteSpace=wrap;html=1;arcSize=50;" vertex="1" parent="1">
          <mxGeometry x="350" y="10" width="90" height="40" as="geometry" />
        </mxCell>
        <mxCell id="XwZqhcOC-zFPmnJXmP0F-2" value="export previ" style="rounded=0;whiteSpace=wrap;html=1;" vertex="1" parent="1">
          <mxGeometry x="110" y="80" width="110" height="40" as="geometry" />
        </mxCell>
        <mxCell id="XwZqhcOC-zFPmnJXmP0F-3" value="trp" style="rounded=0;whiteSpace=wrap;html=1;" vertex="1" parent="1">
          <mxGeometry x="600" y="80" width="110" height="40" as="geometry" />
        </mxCell>
        <mxCell id="XwZqhcOC-zFPmnJXmP0F-4" value="import dans&lt;div&gt;repartition_art&lt;/div&gt;" style="rounded=0;whiteSpace=wrap;html=1;" vertex="1" parent="1">
          <mxGeometry x="110" y="150" width="110" height="40" as="geometry" />
        </mxCell>
        <mxCell id="XwZqhcOC-zFPmnJXmP0F-5" value="import dans&lt;div&gt;calculs_ajout&lt;/div&gt;" style="rounded=0;whiteSpace=wrap;html=1;" vertex="1" parent="1">
          <mxGeometry x="600" y="150" width="110" height="40" as="geometry" />
        </mxCell>
      </root>
    </mxGraphModel>
  </diagram>
</mxfile>
